<svg width="26" height="26" viewBox="0 0 26 26" fill="none" xmlns="http://www.w3.org/2000/svg">
<path fill-rule="evenodd" clip-rule="evenodd" d="M11.3743 2.66474C10.6778 3.00346 9.84455 3.51934 8.65949 4.25482L6.32616 5.70294C5.20518 6.39865 4.41816 6.88825 3.83111 7.33783C3.25993 7.77526 2.9313 8.13625 2.70665 8.54667C2.4812 8.95855 2.34958 9.4401 2.28025 10.1779C2.20926 10.9334 2.20837 11.8868 2.20837 13.2379V15.0125C2.20837 17.3119 2.21011 18.9514 2.37193 20.1964C2.53086 21.419 2.83022 22.1285 3.3293 22.6447C3.82437 23.1568 4.49838 23.4608 5.66663 23.6233C6.86318 23.7897 8.44126 23.7917 10.6667 23.7917H15.3334C17.5588 23.7917 19.1369 23.7897 20.3335 23.6233C21.5017 23.4608 22.1758 23.1568 22.6708 22.6447C23.1699 22.1285 23.4692 21.419 23.6281 20.1964C23.79 18.9514 23.7917 17.3119 23.7917 15.0125V13.2379C23.7917 11.8868 23.7908 10.9334 23.7198 10.1779C23.6505 9.4401 23.5189 8.95855 23.2934 8.54667C23.0687 8.13625 22.7402 7.77526 22.169 7.33783C21.5819 6.88825 20.7949 6.39865 19.674 5.70294L17.3406 4.25482C16.1555 3.51934 15.3223 3.00346 14.6258 2.66473C13.9471 2.33473 13.4665 2.20834 13 2.20834C12.5336 2.20834 12.0529 2.33473 11.3743 2.66474ZM10.609 1.09096C11.4233 0.694967 12.1739 0.458344 13 0.458344C13.8262 0.458344 14.5768 0.694967 15.391 1.09096C16.1783 1.47374 17.0876 2.03812 18.2233 2.74304L20.6344 4.23941C21.7091 4.9064 22.5697 5.44048 23.233 5.94846C23.9199 6.47448 24.4475 7.01022 24.8285 7.70641C25.2087 8.40115 25.38 9.14037 25.4621 10.0142C25.5417 10.8609 25.5417 11.8965 25.5417 13.1951V15.0764C25.5417 17.2977 25.5417 19.051 25.3636 20.4219C25.1807 21.8282 24.7967 22.9635 23.9289 23.861C23.0572 24.7628 21.9478 25.1657 20.5745 25.3566C19.2435 25.5417 17.5435 25.5417 15.4012 25.5417H10.5989C8.45656 25.5417 6.75662 25.5417 5.42559 25.3566C4.05224 25.1657 2.94288 24.7628 2.07113 23.861C1.20336 22.9635 0.819306 21.8282 0.636524 20.4219C0.458351 19.051 0.458363 17.2977 0.458374 15.0766V13.1951C0.458363 11.8965 0.458363 10.8609 0.537929 10.0142C0.620039 9.14037 0.791283 8.40115 1.17157 7.70641C1.55265 7.01022 2.08022 6.47448 2.76709 5.94846C3.43039 5.44048 4.29097 4.90639 5.3657 4.23939L7.77671 2.74305C8.91253 2.03812 9.82187 1.47375 10.609 1.09096Z" fill="#F84D35"/>
<path fill-rule="evenodd" clip-rule="evenodd" d="M8.625 20C8.625 19.5168 9.01675 19.125 9.5 19.125H16.5C16.9832 19.125 17.375 19.5168 17.375 20C17.375 20.4832 16.9832 20.875 16.5 20.875H9.5C9.01675 20.875 8.625 20.4832 8.625 20Z" fill="#F84D35"/>
</svg>
